<?xml version="1.0" encoding="utf-8"?>
<!-- Generator: Adobe Illustrator 25.2.1, SVG Export Plug-In . SVG Version: 6.00 Build 0)  -->
<svg version="1.1" id="Layer_1" xmlns="http://www.w3.org/2000/svg" xmlns:xlink="http://www.w3.org/1999/xlink" x="0px" y="0px"
	 viewBox="0 0 276.6 33.7" style="enable-background:new 0 0 276.6 33.7;" xml:space="preserve">
<style type="text/css">
	.st0{fill:#FFFFFF;}
</style>
<g id="Group_1455">
	<path id="Path_640" class="st0" d="M2.6,18.2H0c0.4,5.1,3.1,9.7,7.3,12.5l1.3-2.2C5.1,26.1,2.9,22.3,2.6,18.2 M31,18.2
		c-0.4,4.2-2.6,7.9-6,10.3l1.3,2.2c4.2-2.9,6.9-7.5,7.3-12.5L31,18.2z M26.3,3L25,5.2c3.4,2.4,5.6,6.2,6,10.3h2.6
		C33.2,10.5,30.5,5.8,26.3,3 M7.2,3C3.1,5.8,0.4,10.5,0,15.5h2.6c0.4-4.2,2.6-7.9,6-10.3L7.2,3L7.2,3z M16.8,0c-2.5,0-5,0.6-7.2,1.6
		l1.3,2.2c3.8-1.7,8.1-1.7,11.9,0L24,1.6C21.8,0.6,19.3,0,16.8,0 M22.7,29.8c-3.8,1.7-8.1,1.7-11.9,0L9.5,32c4.6,2.2,9.9,2.2,14.5,0
		L22.7,29.8z M5.2,15.5h2.6c0.6-4,3.7-7.1,7.7-7.7V5.3C10.1,5.9,5.8,10.1,5.2,15.5 M25.8,18.2c-0.6,4-3.7,7.1-7.7,7.7v2.6
		c5.4-0.6,9.6-4.9,10.2-10.2L25.8,18.2z M18.1,5.3v2.6c4,0.6,7.1,3.7,7.7,7.7h2.6C27.7,10.1,23.5,5.9,18.1,5.3 M7.8,18.2H5.2
		c0.6,5.4,4.9,9.6,10.3,10.2v-2.6C11.5,25.2,8.4,22.1,7.8,18.2 M20.5,18.2c-0.7,2-3,3.1-5,2.4c-1.1-0.4-2-1.3-2.4-2.4h-2.6
		c0.7,3.5,4.1,5.7,7.6,5c2.5-0.5,4.5-2.5,5-5H20.5z M16.8,10.4c-3.1,0-5.7,2.2-6.3,5.1h2.6c0.7-2,3-3.1,5-2.4c1.1,0.4,2,1.3,2.4,2.4
		h2.6C22.5,12.5,19.8,10.4,16.8,10.4 M60,27.6V10.4l-6.3,16.9h-2l-6.3-17v17.3h-2.4V7.2h3.7l6.2,16.6l6.1-16.6h3.6v20.4H60z
		 M71.5,30.6c-0.7,1.9-1.8,3.1-3.9,3.1c-0.7,0-1.5-0.1-2.2-0.3v-2.1c0.6,0.2,1.1,0.2,1.7,0.2c1,0.1,1.9-0.5,2.2-1.5l0.9-2.4L64.4,13
		h2.8l4.3,11.5L75.5,13h2.6L71.5,30.6z M89.3,26.4c-1.1,1.1-2.6,1.6-4.2,1.6C83,28,81,27,79.8,25.2c-0.9-1.5-1.3-3.2-1.2-4.9
		c-0.1-1.7,0.3-3.4,1.2-4.9c1.2-1.8,3.2-2.8,5.3-2.7c1.5-0.1,3,0.5,4.1,1.6c1,1,1.6,2.3,1.7,3.7h-2.5c-0.1-0.9-0.4-1.7-1-2.3
		c-0.6-0.6-1.5-0.9-2.4-0.9c-0.9,0-1.8,0.3-2.5,0.9c-1.1,1-1.5,2.8-1.5,4.6s0.3,3.6,1.5,4.6c0.7,0.6,1.6,1,2.5,0.9
		c0.9,0,1.8-0.3,2.5-1c0.6-0.6,0.9-1.3,1-2.2H91C91,24.1,90.4,25.4,89.3,26.4 M105.4,21.1H95.2c0,1.4,0.5,2.7,1.4,3.6
		c1.5,1.3,3.8,1.4,5.4,0.1c0.4-0.4,0.7-1,0.9-1.6h2.4c-0.2,1.5-1,2.8-2.2,3.6c-1.1,0.7-2.4,1.1-3.7,1.1c-1.9,0-3.6-0.8-4.8-2.2
		c-1.2-1.5-1.9-3.4-1.8-5.4c-0.1-1.6,0.3-3.2,1.1-4.7c1.1-1.9,3.2-3.1,5.5-3c1.7,0,3.3,0.6,4.4,1.9c1.2,1.4,1.9,3.2,1.8,5.1
		L105.4,21.1z M102.1,16.1c-0.7-0.9-1.8-1.4-2.9-1.3c-2.6,0-3.9,2.2-4,4.3h7.8C103,18,102.7,16.9,102.1,16.1 M111.3,27.8
		c-2.1,0-3-1.3-3-3.6V6.8h2.4V24c0,1,0.3,1.5,1.3,1.5c0.3,0,0.7,0,1,0v2.1C112.4,27.7,111.8,27.8,111.3,27.8 M115.2,6.8h2.8v2.9
		h-2.8V6.8z M115.4,13h2.5v14.5h-2.5V13z M131.2,27.6l-0.2-2.2c-0.8,1.6-2.5,2.6-4.3,2.6c-3.3,0-5-2-5-5.3V13h2.4v9.2
		c0,2.2,0.8,3.5,3.1,3.5c0.9,0,1.8-0.4,2.4-1.1c0.9-1.1,1.3-2.6,1.2-4V13h2.4v14.5H131.2z M155,27.6v-9.3c0-2-0.7-3.4-3-3.4
		c-0.8,0-1.6,0.3-2.2,1c-0.9,1.1-1.4,2.6-1.2,4v7.7h-2.4v-9.3c0-2-0.6-3.4-2.9-3.4c-1,0-1.9,0.5-2.5,1.3c-0.7,1.1-1,2.4-1,3.7v7.7
		h-2.4V13h2.1l0.2,2.1c0.8-1.5,2.4-2.5,4.1-2.4c1.9-0.2,3.7,1,4.3,2.8c0.8-1.7,2.6-2.8,4.5-2.8c3.3,0,4.9,2.1,4.9,5.3v9.6L155,27.6z
		"/>
</g>
<path class="st0" d="M178.7,27.4l-3.8-8.4h-5.6v8.4h-2.5V7.2h8c1.9-0.1,3.8,0.5,5.1,1.8c1.1,1.1,1.6,2.6,1.6,4.1
	c0.1,1.5-0.5,2.9-1.5,4c-0.7,0.7-1.5,1.2-2.4,1.4l4.1,8.9L178.7,27.4z M174.6,9.5h-5.4v7.1h5.4c2.4,0,4.1-1,4.1-3.5
	S177,9.5,174.6,9.5"/>
<path class="st0" d="M195.8,21h-10.2c0,1.3,0.5,2.6,1.4,3.6c1.5,1.3,3.8,1.4,5.3,0.1c0.4-0.4,0.7-1,0.9-1.6h2.4
	c-0.2,1.4-1,2.7-2.2,3.6c-1.1,0.7-2.4,1.1-3.7,1.1c-1.8,0-3.6-0.8-4.8-2.2c-1.2-1.5-1.9-3.4-1.8-5.4c-0.1-1.6,0.3-3.2,1.1-4.6
	c1.1-1.9,3.2-3.1,5.5-3c1.7,0,3.3,0.6,4.4,1.9c1.2,1.4,1.9,3.2,1.8,5.1L195.8,21z M192.4,16c-0.7-0.9-1.8-1.4-2.9-1.3
	c-2.6,0-3.9,2.1-4,4.3h7.7C193.3,17.9,193,16.8,192.4,16"/>
<path class="st0" d="M208.2,26.2c-2.8,2.2-6.7,2.2-9.4,0c-0.9-0.9-1.4-2.1-1.4-3.3h2.4c0,0.9,0.4,1.7,1.2,2.3
	c0.8,0.5,1.7,0.7,2.6,0.7c1,0.1,1.9-0.2,2.7-0.8c0.5-0.4,0.7-1,0.7-1.6c0-1.1-0.8-1.9-2.3-2.1c-0.6-0.1-2.3-0.3-3.3-0.4
	c-2-0.1-3.6-1.8-3.5-3.9c0-1.1,0.5-2.1,1.2-2.8c1.1-1.1,2.7-1.7,4.3-1.6c1.7-0.1,3.4,0.6,4.6,1.8c0.7,0.8,1,1.8,1,2.8h-2.4
	c0-0.7-0.3-1.3-0.8-1.8c-0.7-0.6-1.5-0.8-2.4-0.8c-0.6,0-1.2,0.1-1.7,0.3c-0.8,0.3-1.4,1.1-1.5,1.9c0,1.2,0.7,1.7,1.9,1.9
	c0.8,0.1,1.9,0.2,3.5,0.5c2.3,0.2,3.9,2.3,3.7,4.5C209.2,24.7,208.8,25.5,208.2,26.2"/>
<path class="st0" d="M223.9,21h-10.2c0,1.3,0.5,2.6,1.4,3.6c1.5,1.3,3.8,1.4,5.3,0.1c0.4-0.4,0.7-1,0.9-1.6h2.4
	c-0.2,1.4-1,2.7-2.2,3.6c-1.1,0.7-2.4,1.1-3.7,1.1c-1.8,0-3.6-0.8-4.8-2.2c-1.2-1.5-1.9-3.4-1.8-5.4c-0.1-1.6,0.3-3.2,1.1-4.6
	c1.1-1.9,3.2-3.1,5.5-3c1.7,0,3.3,0.6,4.4,1.9c1.2,1.4,1.9,3.2,1.8,5.1L223.9,21z M220.5,16c-0.7-0.9-1.8-1.4-2.9-1.3
	c-2.6,0-3.9,2.1-4,4.3h7.7C221.4,17.9,221.1,16.8,220.5,16"/>
<path class="st0" d="M237.2,27.6c-1.1,0-2.1-0.9-2.1-2c0-0.1,0-0.1,0-0.2h-0.1c-1,1.6-2.8,2.5-4.7,2.4c-3.3,0-5-2.2-5-4.5
	c0-1.9,1.2-4.3,5.1-4.5l4.4-0.3v-1.1c0.1-0.8-0.2-1.6-0.7-2.2c-0.7-0.6-1.5-0.8-2.4-0.7c-1-0.1-1.9,0.2-2.6,0.9
	c-0.5,0.5-0.7,1.1-0.7,1.7h-2.4c0-1.1,0.5-2.2,1.3-3c1.2-1.1,2.8-1.6,4.5-1.5c2.8,0,4.4,1.2,5.1,2.8c0.3,0.7,0.4,1.5,0.4,2.2v7
	c0,0.8,0.3,1,0.8,1c0.2,0,0.4,0,0.6-0.1v1.8C238.3,27.5,237.8,27.7,237.2,27.6 M235,20.5l-3.9,0.2c-1.5,0.1-3.2,0.8-3.2,2.6
	c0,1.3,0.8,2.5,2.9,2.5c1.1,0,2.2-0.4,3-1.2c0.8-0.9,1.3-2.1,1.2-3.3V20.5z"/>
<path class="st0" d="M247.9,15.2c-1,0-2,0.4-2.7,1.1c-1.2,1.1-1.3,3.1-1.3,4.6v6.4h-2.4V13h2.1l0.2,2.5c0.8-1.7,2.5-2.7,4.3-2.6
	c0.4,0,0.8,0,1.1,0.1v2.4C248.8,15.3,248.3,15.2,247.9,15.2"/>
<path class="st0" d="M260.7,26.2c-1.1,1.1-2.6,1.6-4.2,1.6c-2.1,0.1-4.1-0.9-5.3-2.7c-0.9-1.5-1.3-3.2-1.2-4.9
	c-0.1-1.7,0.3-3.4,1.2-4.9c1.2-1.8,3.2-2.8,5.3-2.7c1.5-0.1,3,0.5,4.1,1.5c1,1,1.6,2.3,1.7,3.7h-2.5c-0.1-0.9-0.4-1.7-1-2.3
	c-0.6-0.6-1.5-0.9-2.3-0.9c-0.9,0-1.8,0.3-2.5,0.9c-1.1,1-1.5,2.8-1.5,4.5s0.3,3.6,1.5,4.5c0.7,0.6,1.6,1,2.5,0.9
	c0.9,0,1.8-0.3,2.5-1c0.6-0.6,0.9-1.3,1-2.1h2.5C262.3,24,261.7,25.3,260.7,26.2"/>
<path class="st0" d="M274.3,27.4v-9.2c0-2.2-0.9-3.5-3.2-3.5c-1.4,0.1-2.6,0.9-3.1,2.2c-0.4,1.2-0.6,2.4-0.5,3.7v6.7H265V6.8h2.4
	v8.1c0.9-1.4,2.5-2.3,4.2-2.3c3.3,0,5,2,5,5.3v9.5H274.3z"/>
</svg>
