<svg xmlns="http://www.w3.org/2000/svg" xmlns:xlink="http://www.w3.org/1999/xlink" width="228.704" height="33.676" viewBox="0 0 228.704 33.676">
  <defs>
    <clipPath id="clipPath">
      <rect id="Rectangle_282" data-name="Rectangle 282" width="228.704" height="33.676" fill="#fff" />
    </clipPath>
  </defs>
  <g id="Group_1455" data-name="Group 1455" clipPath="url(#clipPath)">
    <path id="Path_640" data-name="Path 640" d="M2.559,18.151H0A16.786,16.786,0,0,0,7.256,30.7l1.279-2.217A14.241,14.241,0,0,1,2.559,18.151m28.441,0a14.253,14.253,0,0,1-5.976,10.331L26.3,30.7a16.789,16.789,0,0,0,7.256-12.548ZM26.3,2.966l-1.28,2.217A14.276,14.276,0,0,1,31,15.52h2.559A16.812,16.812,0,0,0,26.3,2.966m-19.053,0A16.831,16.831,0,0,0,0,15.52H2.559A14.289,14.289,0,0,1,8.529,5.183L7.256,2.966ZM16.776,0A16.67,16.67,0,0,0,9.532,1.645l1.28,2.217a14.25,14.25,0,0,1,11.935,0l1.279-2.217A16.653,16.653,0,0,0,16.776,0M22.74,29.8a14.239,14.239,0,0,1-11.929,0L9.532,32.02a16.775,16.775,0,0,0,14.494,0ZM5.207,15.52H7.778A9.117,9.117,0,0,1,15.46,7.838V5.267A11.656,11.656,0,0,0,5.207,15.52m20.572,2.631A9.11,9.11,0,0,1,18.1,25.833V28.4A11.656,11.656,0,0,0,28.35,18.151ZM18.1,5.267V7.838a9.111,9.111,0,0,1,7.682,7.682H28.35A11.657,11.657,0,0,0,18.1,5.267M7.778,18.151H5.207A11.655,11.655,0,0,0,15.46,28.4V25.833a9.117,9.117,0,0,1-7.682-7.682m12.68,0a3.905,3.905,0,0,1-7.358,0H10.457a6.456,6.456,0,0,0,12.643,0Zm-3.682-7.779a6.461,6.461,0,0,0-6.319,5.148H13.1a3.905,3.905,0,0,1,7.358,0H23.1a6.462,6.462,0,0,0-6.325-5.148M60.026,27.583V10.4L53.7,27.3H51.694l-6.322-17.04V27.583H42.929V7.21h3.678l6.15,16.58,6.12-16.58h3.592V27.583Zm11.5,2.988c-.69,1.868-1.753,3.1-3.937,3.1a7.96,7.96,0,0,1-2.213-.287V31.261a6.76,6.76,0,0,0,1.724.23,2.066,2.066,0,0,0,2.184-1.466l.92-2.442-5.8-14.54h2.759l4.282,11.465,4.08-11.465H78.08Zm17.82-4.2a5.771,5.771,0,0,1-4.2,1.58,6.082,6.082,0,0,1-5.316-2.73,8.6,8.6,0,0,1-1.207-4.914A8.6,8.6,0,0,1,79.837,15.4a6.03,6.03,0,0,1,5.287-2.73,5.781,5.781,0,0,1,4.138,1.552,5.577,5.577,0,0,1,1.724,3.736H88.515a3.65,3.65,0,0,0-1.034-2.27,3.4,3.4,0,0,0-2.356-.891,3.672,3.672,0,0,0-2.529.948c-1.149.977-1.466,2.787-1.466,4.569s.316,3.592,1.466,4.569a3.67,3.67,0,0,0,2.529.948,3.4,3.4,0,0,0,2.471-.977,3.59,3.59,0,0,0,.977-2.155h2.471a5.468,5.468,0,0,1-1.7,3.678m16.1-5.258H95.158a5.355,5.355,0,0,0,1.408,3.649,4.137,4.137,0,0,0,5.374.086,3.076,3.076,0,0,0,.862-1.58h2.385a5.353,5.353,0,0,1-2.241,3.592,6.7,6.7,0,0,1-3.707,1.092,6.2,6.2,0,0,1-4.827-2.184,8.235,8.235,0,0,1-1.811-5.4,8.875,8.875,0,0,1,1.121-4.655A6.225,6.225,0,0,1,99.21,12.67a5.852,5.852,0,0,1,4.425,1.868,7.493,7.493,0,0,1,1.839,5.115Zm-3.362-5.057a3.45,3.45,0,0,0-2.874-1.322c-2.644,0-3.937,2.155-3.994,4.282h7.758a5.081,5.081,0,0,0-.891-2.96m9.171,11.7c-2.126,0-3.046-1.264-3.046-3.563V6.836h2.443V24.049c0,.977.316,1.494,1.322,1.494a9.389,9.389,0,0,0,1.006-.029v2.069a6.384,6.384,0,0,1-1.724.172m3.939-20.919h2.845V9.71h-2.845Zm.172,6.207h2.5v14.54h-2.5Zm15.807,14.54-.2-2.213a4.727,4.727,0,0,1-4.311,2.557c-3.3,0-4.971-1.983-4.971-5.345v-9.54h2.443v9.2c0,2.184.8,3.477,3.1,3.477a3.282,3.282,0,0,0,2.414-1.092,5.85,5.85,0,0,0,1.207-4.023V13.043H133.3v14.54Zm23.856,0V18.33c0-2.04-.661-3.448-2.96-3.448a2.948,2.948,0,0,0-2.213.977,5.56,5.56,0,0,0-1.236,3.994v7.73h-2.442V18.33c0-2.04-.6-3.448-2.931-3.448a3.089,3.089,0,0,0-2.471,1.293,6.426,6.426,0,0,0-.977,3.678v7.73h-2.443V13.043h2.126l.23,2.069a4.425,4.425,0,0,1,4.08-2.442,4.225,4.225,0,0,1,4.339,2.759,4.793,4.793,0,0,1,4.483-2.759c3.3,0,4.856,2.126,4.856,5.345v9.569Zm24.262,0-10-16.379V27.583h-2.471V7.21h2.874l10,16.437V7.21h2.471V27.583Zm16.874-1.322a6.549,6.549,0,0,1-8.793,0,7.929,7.929,0,0,1-2.069-5.948,7.928,7.928,0,0,1,2.069-5.948,6.549,6.549,0,0,1,8.793,0,7.928,7.928,0,0,1,2.069,5.948,7.929,7.929,0,0,1-2.069,5.948M194.383,15.8a3.822,3.822,0,0,0-5.23,0,6.51,6.51,0,0,0-1.351,4.511,6.51,6.51,0,0,0,1.351,4.511,3.822,3.822,0,0,0,5.23,0,6.512,6.512,0,0,0,1.351-4.511,6.512,6.512,0,0,0-1.351-4.511m16.384,11.782-.173-1.9a5.1,5.1,0,0,1-4.339,2.27,5.537,5.537,0,0,1-4.109-1.58,8.612,8.612,0,0,1-2.1-6.034,8.584,8.584,0,0,1,2.213-6.207,5.7,5.7,0,0,1,3.994-1.466,5.072,5.072,0,0,1,4.224,2.069v-7.9h2.443V27.583Zm-1.753-11.9a3.353,3.353,0,0,0-2.356-.948c-3.247,0-4.109,2.9-4.109,5.575s.862,5.575,4.109,5.575a3.353,3.353,0,0,0,2.356-.948,6.021,6.021,0,0,0,1.609-4.626,6.021,6.021,0,0,0-1.609-4.626m19.66,5.431H218.387a5.355,5.355,0,0,0,1.408,3.649,4.137,4.137,0,0,0,5.373.086,3.079,3.079,0,0,0,.862-1.58h2.385a5.353,5.353,0,0,1-2.242,3.592,6.7,6.7,0,0,1-3.707,1.092,6.2,6.2,0,0,1-4.828-2.184,8.235,8.235,0,0,1-1.81-5.4,8.874,8.874,0,0,1,1.12-4.655,6.226,6.226,0,0,1,5.489-3.046,5.851,5.851,0,0,1,4.425,1.868,7.493,7.493,0,0,1,1.839,5.115Zm-3.362-5.057a3.449,3.449,0,0,0-2.873-1.322c-2.644,0-3.937,2.155-3.994,4.282H226.2a5.079,5.079,0,0,0-.891-2.96" transform="translate(0 0.001)" fill="#fff" />
  </g>
</svg>