<svg id="Layer_1" data-name="Layer 1" xmlns="http://www.w3.org/2000/svg" width="275.6" height="33.68" viewBox="0 0 275.6 33.68"><g id="Group_1455" data-name="Group 1455"><path id="Path_640" data-name="Path 640" d="M2.56,18.15H0A16.75,16.75,0,0,0,7.26,30.7l1.27-2.22a14.25,14.25,0,0,1-6-10.33m28.44,0a14.23,14.23,0,0,1-6,10.33L26.3,30.7a16.81,16.81,0,0,0,7.26-12.55ZM26.3,3,25,5.18a14.3,14.3,0,0,1,6,10.34h2.56A16.81,16.81,0,0,0,26.3,3m-19,0A16.82,16.82,0,0,0,0,15.52H2.56a14.32,14.32,0,0,1,6-10.34L7.26,3Zm9.53-3A16.69,16.69,0,0,0,9.53,1.65l1.28,2.21a14.31,14.31,0,0,1,11.94,0L24,1.65A16.72,16.72,0,0,0,16.78,0m6,29.8a14.21,14.21,0,0,1-11.93,0L9.53,32A16.75,16.75,0,0,0,24,32ZM5.21,15.52H7.78a9.12,9.12,0,0,1,7.68-7.68V5.27A11.64,11.64,0,0,0,5.21,15.52m20.57,2.63a9.1,9.1,0,0,1-7.68,7.68V28.4A11.66,11.66,0,0,0,28.35,18.15ZM18.1,5.27V7.84a9.11,9.11,0,0,1,7.68,7.68h2.57A11.67,11.67,0,0,0,18.1,5.27M7.78,18.15H5.21A11.65,11.65,0,0,0,15.46,28.4V25.83a9.1,9.1,0,0,1-7.68-7.68m12.68,0a3.91,3.91,0,0,1-5,2.37,3.87,3.87,0,0,1-2.37-2.37H10.46a6.45,6.45,0,0,0,12.64,0Zm-3.68-7.78a6.47,6.47,0,0,0-6.32,5.15H13.1a3.91,3.91,0,0,1,7.36,0H23.1a6.45,6.45,0,0,0-6.32-5.15M60,27.58V10.4L53.7,27.3h-2l-6.32-17V27.58H42.93V7.21h3.68l6.15,16.58L58.88,7.21h3.59V27.58Zm11.5,3c-.69,1.87-1.76,3.1-3.94,3.1a7.85,7.85,0,0,1-2.21-.29V31.26a6.66,6.66,0,0,0,1.72.23A2.06,2.06,0,0,0,69.28,30l.92-2.45L64.4,13h2.76l4.28,11.47L75.53,13h2.55Zm17.82-4.2A5.79,5.79,0,0,1,85.15,28a6.06,6.06,0,0,1-5.32-2.73,8.56,8.56,0,0,1-1.21-4.91,8.65,8.65,0,0,1,1.22-4.91,6,6,0,0,1,5.28-2.73,5.81,5.81,0,0,1,4.14,1.55A5.6,5.6,0,0,1,91,18H88.51a3.59,3.59,0,0,0-1-2.27,3.36,3.36,0,0,0-2.36-.89,3.62,3.62,0,0,0-2.52.95c-1.15,1-1.47,2.78-1.47,4.56s.32,3.6,1.47,4.57a3.62,3.62,0,0,0,2.52.95,3.45,3.45,0,0,0,2.48-1,3.58,3.58,0,0,0,1-2.16H91a5.45,5.45,0,0,1-1.7,3.68m16.1-5.26H95.16a5.32,5.32,0,0,0,1.41,3.65,4.14,4.14,0,0,0,5.37.09,3,3,0,0,0,.86-1.58h2.39A5.39,5.39,0,0,1,103,26.87,6.7,6.7,0,0,1,99.24,28a6.21,6.21,0,0,1-4.83-2.18,8.28,8.28,0,0,1-1.81-5.4,8.91,8.91,0,0,1,1.12-4.66,6.23,6.23,0,0,1,5.49-3.05,5.86,5.86,0,0,1,4.43,1.87,7.48,7.48,0,0,1,1.83,5.11Zm-3.36-5.06a3.45,3.45,0,0,0-2.87-1.32c-2.65,0-3.94,2.16-4,4.28H103a5.05,5.05,0,0,0-.89-3m9.17,11.7c-2.12,0-3-1.26-3-3.56V6.84h2.44V24.05c0,1,.32,1.49,1.32,1.49a8.52,8.52,0,0,0,1,0v2.07a6.33,6.33,0,0,1-1.73.18m3.94-20.92H118V9.71h-2.85Zm.17,6.2h2.5V27.58h-2.5Zm15.81,14.54-.2-2.21a4.72,4.72,0,0,1-4.31,2.56c-3.3,0-5-2-5-5.35V13h2.44v9.2c0,2.19.8,3.48,3.1,3.48a3.3,3.3,0,0,0,2.42-1.09,5.88,5.88,0,0,0,1.2-4V13h2.45V27.58Zm23.86,0V18.33c0-2-.66-3.45-3-3.45a3,3,0,0,0-2.22,1,5.54,5.54,0,0,0-1.23,4v7.73h-2.44V18.33c0-2-.6-3.45-2.93-3.45a3.13,3.13,0,0,0-2.48,1.3,6.35,6.35,0,0,0-1,3.67v7.73h-2.45V13h2.13l.23,2.07a4.43,4.43,0,0,1,4.08-2.44,4.22,4.22,0,0,1,4.34,2.76,4.79,4.79,0,0,1,4.48-2.76c3.3,0,4.86,2.13,4.86,5.35v9.56Z" fill="#fff"/></g><path d="M176.66,27.44,172.83,19h-5.61v8.44h-2.54V7.16h7.95A6.85,6.85,0,0,1,177.78,9a5.76,5.76,0,0,1,1.6,4.12,5.47,5.47,0,0,1-1.55,4,5.83,5.83,0,0,1-2.43,1.43l4.06,8.92Zm-4-17.94h-5.41v7.12h5.41c2.4,0,4.12-1,4.12-3.54S175,9.5,172.63,9.5" fill="#fff"/><path d="M193.77,21H183.54a5.31,5.31,0,0,0,1.4,3.63,4.12,4.12,0,0,0,5.35.09,3.11,3.11,0,0,0,.85-1.57h2.37a5.31,5.31,0,0,1-2.23,3.57,6.64,6.64,0,0,1-3.69,1.09,6.2,6.2,0,0,1-4.81-2.17,8.25,8.25,0,0,1-1.8-5.38,8.9,8.9,0,0,1,1.12-4.63,6.2,6.2,0,0,1,5.46-3,5.84,5.84,0,0,1,4.4,1.86,7.44,7.44,0,0,1,1.83,5.09Zm-3.35-5a3.42,3.42,0,0,0-2.86-1.32c-2.63,0-3.91,2.15-4,4.26h7.72a5,5,0,0,0-.89-2.94" fill="#fff"/><path d="M206.19,26.18a7.61,7.61,0,0,1-9.41,0,4.67,4.67,0,0,1-1.4-3.32h2.43A2.85,2.85,0,0,0,199,25.12a4.66,4.66,0,0,0,2.6.66,4,4,0,0,0,2.66-.8A2.08,2.08,0,0,0,205,23.4c0-1.08-.78-1.85-2.26-2.06-.63-.08-2.26-.28-3.26-.42A3.78,3.78,0,0,1,195.89,17a4.14,4.14,0,0,1,1.2-2.84,5.89,5.89,0,0,1,4.26-1.6A5.8,5.8,0,0,1,206,14.42a4.18,4.18,0,0,1,1,2.78h-2.44a2.54,2.54,0,0,0-.83-1.8,3.34,3.34,0,0,0-2.37-.77,3.77,3.77,0,0,0-1.69.28,2.17,2.17,0,0,0-1.45,1.94c0,1.2.74,1.72,1.95,1.89.8.11,1.94.23,3.49.48a4.12,4.12,0,0,1,2.54,7" fill="#fff"/><path d="M221.87,21H211.63a5.31,5.31,0,0,0,1.4,3.63,4.12,4.12,0,0,0,5.35.09,3.19,3.19,0,0,0,.86-1.58h2.37a5.33,5.33,0,0,1-2.23,3.58,6.72,6.72,0,0,1-3.69,1.09,6.18,6.18,0,0,1-4.81-2.18,8.24,8.24,0,0,1-1.8-5.37,8.84,8.84,0,0,1,1.12-4.64,6.2,6.2,0,0,1,5.46-3,5.84,5.84,0,0,1,4.41,1.86,7.47,7.47,0,0,1,1.83,5.09Zm-3.35-5a3.42,3.42,0,0,0-2.86-1.32c-2.63,0-3.91,2.15-4,4.26h7.72a5,5,0,0,0-.89-2.94" fill="#fff"/><path d="M235.23,27.64a2.06,2.06,0,0,1-2.09-2v-.17h0a5.28,5.28,0,0,1-4.67,2.37c-3.31,0-5-2.23-5-4.46,0-1.86,1.2-4.29,5.14-4.52l4.4-.26V17.51a2.82,2.82,0,0,0-.74-2.2,3.23,3.23,0,0,0-2.37-.74,3.58,3.58,0,0,0-2.63.85,2.39,2.39,0,0,0-.72,1.75h-2.37a4.28,4.28,0,0,1,1.25-3,6.25,6.25,0,0,1,4.47-1.55c2.8,0,4.4,1.2,5.09,2.78a5.64,5.64,0,0,1,.43,2.23v7c0,.77.31,1,.8,1a3.42,3.42,0,0,0,.63-.09v1.8a3.3,3.3,0,0,1-1.6.34M233,20.46l-3.89.23c-1.46.08-3.18.77-3.18,2.6,0,1.28.8,2.48,2.86,2.48a4.1,4.1,0,0,0,3-1.17A4.68,4.68,0,0,0,233,21.31Z" fill="#fff"/><path d="M245.87,15.22a4,4,0,0,0-2.75,1.15c-1.17,1.11-1.31,3.12-1.31,4.63v6.44h-2.4V13h2.14l.2,2.55a4.49,4.49,0,0,1,4.32-2.63,7.33,7.33,0,0,1,1.15.08v2.38a6.85,6.85,0,0,0-1.35-.12" fill="#fff"/><path d="M258.66,26.24a5.76,5.76,0,0,1-4.17,1.57,6.06,6.06,0,0,1-5.29-2.72A8.56,8.56,0,0,1,248,20.2a8.56,8.56,0,0,1,1.2-4.89,6,6,0,0,1,5.26-2.72,5.75,5.75,0,0,1,4.12,1.55,5.52,5.52,0,0,1,1.72,3.71h-2.46a3.59,3.59,0,0,0-1-2.25,3.35,3.35,0,0,0-2.35-.89,3.65,3.65,0,0,0-2.51.94c-1.15,1-1.46,2.78-1.46,4.55s.31,3.58,1.46,4.55a3.65,3.65,0,0,0,2.51.94,3.4,3.4,0,0,0,2.46-1,3.62,3.62,0,0,0,1-2.15h2.46a5.48,5.48,0,0,1-1.69,3.67" fill="#fff"/><path d="M272.31,27.44V18.25c0-2.17-.89-3.46-3.17-3.46A3.57,3.57,0,0,0,266,17a9.46,9.46,0,0,0-.51,3.69v6.73H263V6.78h2.44v8.1a4.9,4.9,0,0,1,4.23-2.29c3.29,0,5,2,5,5.32v9.53Z" fill="#fff"/></svg>