<?xml version="1.0" encoding="UTF-8"?>
<svg xmlns="http://www.w3.org/2000/svg" xmlns:xlink="http://www.w3.org/1999/xlink" viewBox="0 0 500 500" width="500px" height="500px">
<g id="surface4040714">
<path style=" stroke:none;fill-rule:nonzero;fill:rgb(100%,100%,100%);fill-opacity:1;" d="M 52.8125 20 C 47.65625 20.9375 44.101562 25.742188 44.6875 30.9375 L 80 425.3125 C 80.46875 429.335938 83.320312 432.65625 87.1875 433.75 L 247.1875 479.6875 C 249.023438 480.234375 250.976562 480.234375 252.8125 479.6875 L 412.8125 433.75 C 416.679688 432.65625 419.53125 429.335938 420 425.3125 L 455.3125 30.9375 C 455.585938 28.125 454.648438 25.351562 452.734375 23.242188 C 450.820312 21.171875 448.125 20 445.3125 20 L 54.6875 20 C 54.375 20 54.0625 20 53.75 20 C 53.4375 20 53.125 20 52.8125 20 Z M 65.625 40 L 434.375 40 L 400.9375 416.5625 L 250 459.375 L 99.0625 416.5625 Z M 125.3125 100.625 C 120.15625 101.5625 116.601562 106.367188 117.1875 111.5625 L 130.625 259.375 C 130.9375 264.53125 135.15625 268.59375 140.3125 268.75 L 300 268.75 L 295.625 314.6875 L 250.3125 324.375 L 204.375 314.6875 L 202.8125 298.4375 C 202.5 293.164062 198.085938 289.0625 192.8125 289.0625 L 144.0625 289.0625 C 141.25 289.0625 138.554688 290.234375 136.640625 292.304688 C 134.726562 294.414062 133.789062 297.1875 134.0625 300 L 139.6875 361.25 C 140 365.273438 142.695312 368.75 146.5625 370 L 245.9375 400.3125 L 247.1875 400.625 C 249.023438 401.171875 250.976562 401.171875 252.8125 400.625 L 353.4375 370 C 357.421875 368.867188 360.273438 365.390625 360.625 361.25 L 373.75 210.9375 C 374.023438 208.164062 373.125 205.429688 371.289062 203.359375 C 369.453125 201.289062 366.835938 200.078125 364.0625 200 L 193.75 200 L 191.25 169.0625 L 368.4375 169.0625 C 373.632812 169.101562 377.96875 165.15625 378.4375 160 L 382.8125 111.5625 C 383.085938 108.75 382.148438 105.976562 380.234375 103.867188 C 378.320312 101.796875 375.625 100.625 372.8125 100.625 L 127.1875 100.625 C 126.5625 100.546875 125.9375 100.546875 125.3125 100.625 Z M 138.125 120.625 L 361.875 120.625 L 359.375 149.0625 L 180.3125 149.0625 C 177.5 149.0625 174.804688 150.234375 172.890625 152.304688 C 170.976562 154.414062 170.039062 157.1875 170.3125 160 L 175 210.9375 C 175.46875 215.976562 179.648438 219.882812 184.6875 220 L 353.125 220 L 341.25 352.8125 L 250 380.3125 L 158.75 352.8125 L 155 309.0625 L 183.75 309.0625 L 185 323.75 C 185.3125 328.164062 188.476562 331.835938 192.8125 332.8125 L 248.4375 344.375 C 249.765625 344.648438 251.171875 344.648438 252.5 344.375 L 307.1875 332.8125 C 311.523438 331.835938 314.6875 328.164062 315 323.75 L 320.9375 259.375 C 321.09375 256.601562 320.117188 253.90625 318.242188 251.914062 C 316.328125 249.882812 313.710938 248.75 310.9375 248.75 L 149.375 248.75 Z M 138.125 120.625 "/>
</g>
</svg>
